# xmcd
#
# Track frame offsets:
#	150
#	16316
#	32030
#	45710
#	61485
#	74221
#	89894
#	105878
#	120936
#	133994
#	150827
#	166810
#	185752
#	202205
#
# Disc length: 2919 seconds
#
# Revision: 1
# Processed by: cddbd v1.5.2PL0 Copyright (c) Steve Scherf et al.
# Submitted via: audiograbber 1.83.01
#
DISCID=c60b650e
DTITLE=Seinabo Sey - Pretend
DYEAR=2015
DGENRE=
TTITLE0=Younger
TTITLE1=Pretend
TTITLE2=Poetic
TTITLE3=Hard Time
TTITLE4=Easy
TTITLE5=Words
TTITLE6=Sorry
TTITLE7=Who
TTITLE8=Still 
TTITLE9=You
TTITLE10=Run
TTITLE11=Burial
TTITLE12=Pistols At Dawn (Bonus Track)
TTITLE13=River (Bonus Track)
EXTD=
EXTT0=
EXTT1=
EXTT2=
EXTT3=
EXTT4=
EXTT5=
EXTT6=
EXTT7=
EXTT8=
EXTT9=
EXTT10=
EXTT11=
EXTT12=
EXTT13=
PLAYORDER=
